<?xml version="1.0" encoding="utf-8"?>
<!-- Generator: Adobe Illustrator 25.2.1, SVG Export Plug-In . SVG Version: 6.00 Build 0)  -->
<svg version="1.1" id="Layer_1" xmlns="http://www.w3.org/2000/svg" xmlns:xlink="http://www.w3.org/1999/xlink" x="0px" y="0px"
	 viewBox="0 0 1080 1080" style="enable-background:new 0 0 1080 1080;" xml:space="preserve">
<style type="text/css">
	.st0{display:none;fill-rule:evenodd;clip-rule:evenodd;fill:#EBD6CA;}
	.st1{display:none;fill-rule:evenodd;clip-rule:evenodd;fill:#251321;}
	.st2{display:none;fill:#211618;}
	.st3{fill:#211618;}
	.st4{fill:#EBD6CA;}
	.st5{fill-rule:evenodd;clip-rule:evenodd;fill:#211618;}
	.st6{fill-rule:evenodd;clip-rule:evenodd;fill:#E2A38D;}
	.st7{fill-rule:evenodd;clip-rule:evenodd;fill:#CE8D76;}
	.st8{fill-rule:evenodd;clip-rule:evenodd;fill:#DBAB9A;}
	.st9{fill-rule:evenodd;clip-rule:evenodd;fill:#EBD6CA;}
	.st10{fill-rule:evenodd;clip-rule:evenodd;fill:#BC7266;}
	.st11{fill-rule:evenodd;clip-rule:evenodd;fill:#FFFFFF;}
	.st12{fill-rule:evenodd;clip-rule:evenodd;fill:#C0C0C0;}
	.st13{fill-rule:evenodd;clip-rule:evenodd;fill:#B3927F;}
	.st14{fill-rule:evenodd;clip-rule:evenodd;fill:#2B1D20;}
	.st15{fill:#FFFFFF;}
	.st16{fill:#E8D6CD;}
	.st17{fill:#CE8D76;}
	.st18{fill-rule:evenodd;clip-rule:evenodd;fill:none;stroke:#211618;stroke-width:10;stroke-miterlimit:10;}
</style>
<g>
	<g>
		<path class="st16" d="M170.77,512.72c0-9.7,0-19.4,0-29.1c1.61-7.68,2.69-15.51,4.92-23c8.52-28.7,24.88-50.49,54.63-59.9
			c3.8-1.2,7.75-1.89,11.53-2.8c2.46-16.23,4.07-32.03,0.87-48.28c-4.64-23.62-6.95-47.49-2.94-71.63
			c7.84-47.2,31.14-83.4,74.26-105.64c3.71-1.91,5.75-4.27,7.15-8.15c26.34-72.77,87.31-108.8,162.85-101.76
			c30.95,2.88,61.8,6.81,92.69,10.32c10.37,1.18,20.73,2.5,31.09,3.76c0,0.34,0,0.69,0,1.03c-10.98,3.97-21.96,7.95-32.93,11.92
			c8.34,2.13,16.33,3.28,24.32,4.37c24.81,3.37,49.61,7.1,74.78,5.39c16.4-1.12,30.92-6.24,43-18.21
			c14.78-14.64,30.3-28.52,45.45-42.78c1.4-1.32,2.47-2.99,3.69-4.49c0.4,0,0.81,0,1.21,0c-3.19,29.25-6.38,58.5-9.6,88.04
			c3.09,0.5,6.85,1.13,10.61,1.73c70,11.06,119.71,57.61,134.84,126.72c2.66,12.17,4.05,24.62,6.02,36.94c0,17.78,0,35.57,0,53.35
			c-0.31,2.97-0.83,5.93-0.9,8.9c-0.67,30.69-1.27,61.39-1.87,92.08c-0.08,4.39-0.01,8.78-0.01,13.17
			c-0.59,0.08-1.17,0.16-1.76,0.24c-9.97-26.5-19.95-53-30.23-80.34c-5.28,17.43-10.04,33.63-15.13,49.74
			c-2.36,7.49-6.21,14.59-7.89,22.2c-4.64,21.05-8.61,42.25-12.62,63.44c-6.32,33.4-9.8,67.11-9.59,101.13
			c0.19,29.91-0.56,59.74-4.7,89.44c-10.07,72.26-37.01,137.31-83.83,193.44c-36.42,43.66-79.66,80.14-124.94,114.2
			c-21.23,15.97-45.13,26.62-70.97,32.67c-9.77,2.29-19.75,3.63-29.64,5.4c-10.1,0-20.21,0-30.31,0c-5.94-1-11.91-1.84-17.81-3.02
			c-55.28-11.03-93.7-43.65-119.06-93.01c-5.25-10.22-10.45-20.49-16.09-30.49c-12.84-22.76-30.7-41.44-49.09-59.68
			c-19.12-18.97-34.66-40.38-44.16-65.86c-10.69-28.67-14.62-58.6-17.01-88.85c-0.19-2.42-1.5-5.58-3.35-6.92
			c-16.46-11.85-26.6-27.77-31.96-47.13c-4.66-16.83-4.51-34.01-3.44-51.13c1.11-17.7-0.04-34.8-5.35-51.92
			C173.96,536.81,172.93,524.59,170.77,512.72z"/>
		<path class="st5" d="M248.87,681.23c-3.73-1.13-7.3-2.63-10.43-4.39c-20.19-11.37-27.38-33.26-27.81-55.29
			c-0.21-10.58,0.05-21.01,0.63-31.56c0.33-5.97,0.84-12.18,0.57-18.15c-0.24-5.38-1.27-10.3-2.85-15.45
			c-8.68-28.38-14.69-63.62-5.16-92.56c6.77-20.54,22.47-38.24,45.37-39.01c7.11-0.24,13.72,1.21,19.7,3.94
			c1.01-5.92,2.11-11.79,3.24-17.52c7.14-36.26,17.64-73.15,33.06-106.78c19.15-41.76,48.17-82.72,92.11-100.62
			c53.99-21.99,129.28-18.58,185.99-10.14c42.58,6.34,86.54,16.98,126.73,32.5c26.95,10.41,64.57,27.89,82.42,51.54
			c12,15.05,21.34,40.06,26.03,58.21c13.88,53.78,8.27,111.82-6.27,164.83c-1.91,9.07-3.36,18.5-4.67,27.65
			c-3.18,22.29-5.22,44.89-5.82,67.4c-0.42,15.61,0.15,31.27-0.28,46.94c-0.64,23.65-2.76,47.1-7.04,70.38
			c-11.96,64.9-39.59,122.58-83.34,172.17c-16.78,19.01-37.18,37.5-56.18,54.29c-18.56,16.4-38.68,33.67-59.06,47.76
			c-33.16,22.92-76.4,34.14-116.46,28.54c-49.71-6.94-86.48-37.79-107.76-82.56c-11.46-24.1-24.84-46.26-42.36-66.44
			c-12.13-13.97-25.97-26.21-38.02-40.12c-14.78-17.05-24.04-34.45-30.43-56.13C252.6,742.78,249.87,710.97,248.87,681.23"/>
		<path class="st5" d="M386.93,926.07c-62.55-131.59-118.11-76.4-121.47-259.6c0,0-36.92,3.33-37.87-45.25
			c-0.76-38.96,4.64-46.8-2.38-69.78c-33.88-110.83,34.55-133.76,55.97-86.34c0,0,17.27-202.68,122.54-245.55
			c105.27-42.87,332.96,11.91,375.36,68.59c0,0,55.26,68.59,16.67,208.64c0,0-9.53,44.78-10.96,98.6
			c-1.19,44.9,11.21,168.05-86.43,278.71c-23.29,26.4-81.86,78.38-112.17,99.32C529.36,1012.69,430.85,1018.46,386.93,926.07"/>
		<path class="st6" d="M414.42,750.86c0,0,6,30.28,6.71,62.19l9.65-14.41l-0.36,48.47c0,0,21.43,42.64,88.47,46.33
			c0,0-22.86-7.5-31.2-22.63c0,0,40.13,28.7,99.2,13.1c0,0-3.22,5.6-13.69,10.6c0,0,41.32-3.45,57.16-41.68
			c15.84-38.23,25.84-60.14,25.84-60.14l-8.38-23l-110.95-14.99c0,0-63.42-13.66-68.03-16.12c-4.61-2.46-47.2-12.31-47.2-12.31
			S412.55,733.75,414.42,750.86"/>
		<path class="st7" d="M414.42,750.86c0,0,6,30.28,6.71,62.19l9.65-14.41l-0.36,48.47c0,0,12.89,25.62,49.91,38.86
			c-8.3-28.68,8.01-64.19,8.01-64.19l-17.79-13.9c33.77,14.08,60.43,9.85,60.43,9.85c-31.92-5.12-68.47-29.41-64.54-45.25
			c3.93-15.84,43.74-8.6,43.74-8.6c1.06-5.5,1.14-10.47,0.4-14.96c-18.03-4.04-39.14-8.95-41.72-10.33
			c-4.61-2.46-47.2-12.31-47.2-12.31S412.55,733.75,414.42,750.86"/>
		<path class="st8" d="M247.98,662.65c-9.69-4.96-19.89-16.19-20.39-41.43c-0.76-38.96,4.64-46.8-2.38-69.78
			c-33.88-110.83,34.55-133.76,55.97-86.34c0,0,17.27-202.68,122.54-245.55c105.27-42.87,332.96,11.91,375.36,68.59
			c0,0,55.26,68.59,16.67,208.64c0,0-9.53,44.78-10.96,98.6c-0.73,27.33,3.58,83.65-14.95,148.49
			c-1.98,14.78-20.82,41.84-46.02,42.45c-5.05-45.51-50.11-73.06-50.11-73.06c2.5,10,1.55,23.34,1.55,23.34
			c-15.72-33.34-49.3-58.59-49.3-58.59c-5.69-3.84-10.64-5.64-14.84-6.23c0.03-0.25,0.06-0.49,0.09-0.74l0.24-5.6l0.06-5.61
			c-10.07,4.28-30.42,10.17-49.66,4.73c-8.05-2.28-17.07-7.55-22.34-15.17l-10.34-0.75c0,0-10.36,1.82-11.52,10.65
			c-51.19,7.64-77.22,31.57-77.22,31.57c2.86-6.31,11.91-17.51,11.91-17.51c-58.59,17.15-75.89,70.92-75.89,70.92
			c-1.7-6.49-2.18-14.95-1.97-20.97c-9.92,15.41-9.76,40.53-4.29,60.3c-26.54-20.15-35.86-76.07-35.86-76.07
			c-40.15-15.77-59.65-69.97-59.65-69.97S269.38,664.85,247.98,662.65"/>
		<path class="st9" d="M818.48,395.39c11.83,27.11,15.7,63.3,5.91,98.85c0,0-7.35,36.8-8.78,90.62
			c-0.72,27.33-0.05,77.84-18.57,142.69c-1.33,9.96-37.52,41.81-50.95,51.07c18.67-54.02,17.66-106.64,17.66-106.64
			c-7.62,23.58-19.29,30.96-19.29,30.96c18.58-64.31,10.48-132.79,10.48-132.79l2.14-5l-3.94-8.5c-7.4-9.44-41.63-29.15-41.63-29.15
			c12.12-0.12,21.99,1.68,29.67,3.81c39.26,10.9,34.26-22.82,22.08-32.38l-6.21-42.69l9.5-37.68l16.15-81.56
			C784.31,330.01,824.11,368.61,818.48,395.39"/>
		<path class="st9" d="M656.53,441.51c0,0,62.06-26.55,114.02,26.72l-9.24,6.82c0,0-33.34-19.53-76.69-7.62
			c-43.35,11.91-47.16,7.62-47.16,7.62S648.9,441.83,656.53,441.51"/>
		<path class="st10" d="M523.13,651.09c-2.51,1.6-4.97,4.17-5.5,8.22c-35.19,5.25-58.49,18.2-69.62,25.78
			c-0.54-1.26-1.06-2.57-1.58-3.95c3.02-4.23,5.89-7.78,5.89-7.78c-2.65,0.78-5.21,1.63-7.69,2.54c-1.33-4.16-2.55-8.76-3.65-13.89
			c-16.2-75.5,56.87-87.67,56.87-87.67c12.91,0.02-11.14,20.27-11.14,20.27l-14.77,25.48l5.01,27.93
			C476.96,648.04,512.97,649.57,523.13,651.09"/>
		<path class="st7" d="M658.77,436.29c-98.81,59.42-26.32,141.58-29.75,188.04l0.01-0.01c0,0,4.82-28.16,1.23-58.98
			c-0.79-1.13-1.63-2.24-2.52-3.33l1.75-2.42c-0.3-1.99-0.64-3.99-1.02-5.99c-1.27-6.7,2.26-7.63,8.78-4.76l5.22-7.22l27.68-29.58
			c0,0-17.64-26.48,22.37-39.11c40.01-12.62-2.14-12.62-3.57-12.62c-1.43,0-24.29,11.19-27.63,11.19
			C657.99,471.5,623.69,474.36,658.77,436.29"/>
		<path class="st7" d="M467.02,636.8l-5.29-7.26l1.07-9.29l4.38-9.02c10.27-21.4,25.97-24.24,31.68-39.15
			c4.37-11.42,4.27-27.25-4.02-38.04l-50.49,4.52l-29.89-8.99c-71.6,30.97-87.26,151.93,7.48,123.88
			C440.98,647.81,454.46,640.5,467.02,636.8 M231.5,648.28c-2.86-6.22-3.7-16.49-3.91-27.06c-0.76-38.96,4.64-46.8-2.38-69.79
			c-33.88-110.83,34.55-133.75,55.97-86.34c0,0,14.66-172.09,99.32-232.66c64.59,1.01,78.22-32.22,74.37,22.39
			c5.15,45.89-16.34,86.67-37.08,117.75c-18.02,27-26.57,58.28-15.72,91.59l-0.01,0.01c0,0-14.4,4.33-21.49,14.95
			c0,0,17.08,1.46,32.92-2.47c1.91-0.47,3.45-1.2,4.68-2.1c1.76,0.83,3.61,1.64,5.55,2.42c62.77,25.04,67.77,31,67.77,31
			l-4.83-14.38c20.48-6.69,38.87-32.67,24.3-70.38l29.24,33.18l10.95-5l5.96-17.62l-3.65-28.77c0,0,27.47,32.58,3.18,85.93
			l11.67-8.69c0,0-46.68,52.87-36.68,104.32c0,0-39.42-1.67-50.73,21.67c-11.31,23.34,25.48,30.48,25.48,30.48l-1.39,2.18
			c3.18,1.72,6.52,3.83,10.06,6.37c2.33,1.67,4.45,3.37,6.39,5.09c-1.84,1.6-3.4,3.84-3.81,6.96
			c-51.19,7.64-77.22,31.57-77.22,31.57c2.86-6.31,11.91-17.51,11.91-17.51c-58.59,17.15-75.89,70.92-75.89,70.92
			c-1.7-6.49-2.18-14.95-1.97-20.97c-9.92,15.41-9.76,40.53-4.29,60.3c-21.47-16.3-31.9-49.95-35.86-76.07
			c-40.15-15.77-59.65-69.97-59.65-69.97c-0.25,0.16-1.04,10.81-7.14,18.17C254.99,670.85,238.34,663.14,231.5,648.28z"/>
		<path class="st10" d="M228.84,577.43l0-0.06L228.84,577.43z M231.5,648.28c-2.86-6.22-3.7-16.48-3.91-27.06
			c-0.4-20.43,0.9-32.3,1.2-42.28c-0.21,11.32,0.16,80.51,40.41,74.52c-0.51,0.79-1.07,1.56-1.68,2.3
			C254.99,670.85,238.34,663.14,231.5,648.28z"/>
		<path class="st10" d="M217.85,520.03c-11.54-74.35,32.57-93.6,55.88-66.73C215.34,449.82,217.71,516.92,217.85,520.03"/>
		<path class="st10" d="M495.02,534.28l-0.19-0.25l-29.7,10.15c-3.8,0.29-6.34,0.27-6.34,0.27c-86.07-2.92-78.22-65.33-78.22-65.33
			c67.71-9.64,87.13,7.99,87.13,7.99s25.01,17.62,27.51,20.13c2.5,2.5,9.17,6.79,3.1,22.15
			C497.57,531.24,496.44,532.86,495.02,534.28"/>
		<path class="st11" d="M392.44,492.81c0,0,9.57,27.88,52.5,32.76c4.7,0.53,12.75-0.86,18.28-1.15
			c61.75-3.24,30.67-20.92,30.67-20.92S451.2,482,448.81,480.87s-24.53-4.23-37.51-5c-12.98-0.77-14.11,1.19-15.84,3.16
			C393.74,480.99,385.58,490.87,392.44,492.81"/>
		<path class="st12" d="M392.44,492.81c0,0,3.75,10.94,17.11,20.31c-7.01-16.23,1.76-29.21,1.76-29.21
			c-2.56-5.11-9.73-5.13-17.39-3.01C391.17,484.47,386.89,491.24,392.44,492.81"/>
		<path class="st5" d="M467.17,611.23c0,0-14.29,31.02,26.74,35.31c-19.53-7.54-12.58-14.98,2.32-16.66
			c18.67-2.11,45.41,11,48.71,32.94c0.47,3.14,3.11,4.7,10,3.85c0,0-8.1,7.74-18.34,2.26c-10.24-5.48-20.01-10.6-39.66-10.12
			c-11.13,0.27-27.57-3.74-34.99-13.66C456.26,637.54,453.12,624.4,467.17,611.23"/>
		<path class="st5" d="M576.06,669.58c0,0,8.14,8.47,21.44-1.01c45.54-32.49,58.47-5.28,47.87,4.82
			c10.58-3.37,20.8-16.68,6.95-35.15c23.23,14.15,13.64,56.73-36.55,40.16C601.22,673.59,577.35,684.39,576.06,669.58"/>
		<path class="st5" d="M380.57,479.12c0,0,48.64-30.84,98.42,9.65c0,0-6.67-23.1-53.59-36.56c0,0,74.55-7.15,93.36,77.88
			c0,0-49.18,43.83-102.89,12.03c0,0,50.73,9.17,75.38-16.67c0,0-24.77,7.5-46.8,0.12c0,0,27.51,0.6,39.66-7.62
			c0,0-22.63-45.73-92.41-31.44c0,0,1.67,11.91,12.06,21.97C391.41,505.81,380.3,491.41,380.57,479.12"/>
		<path class="st5" d="M537.98,488c12.86-13.34,33.82-43.23,15.48-83l-3.57,29.65c0,0-43.47-86.58-157.56-73.71l20.96,9.65
			l-45.37,18.94l20.84,9.65c0,0,36.68-10,80.62,0.36c0,0-12.62-0.24-37.87,5.6c0,0,72.76,3.1,99.08,53.35L537.98,488z"/>
		<path class="st5" d="M429.98,719.06c0,0,8.04,4.41,23.52,7.5c15.48,3.1,38.46,8.22,45.85,11.08
			c24.49,9.48,108.02,22.25,131.83,21.79c7.75-0.15,11.91-0.48,11.91-0.48s10.6-11.07-22.98-20.36c82.49,3.89,55.73,76.75-7.5,79.43
			c0,0,13.86-2.04,23.89-13c7.84-8.57,8.11-17.35,4.33-21.78c-5.58-6.53-19.81-6.56-30.44-6.53
			c-48.28,0.16-119.47-12.72-158.6-34.66c-30.83-17.28-27.19,14.73-7.81,31.43c-22.47-5.58-45.88-36.87-34.59-58.51
			c7.46-14.3,29.98-14.81,46.26-9.72C443.78,706.03,434.64,710.41,429.98,719.06"/>
		<path class="st5" d="M464.83,804.39c0,0,53.83,38.23,150.64,22.39c0,0-16.2,12.86-30.25,16.2c-17.88,16.22-56.74,17.64-66.93-4.64
			C518.3,838.33,475.07,833.33,464.83,804.39"/>
		<path class="st11" d="M749.84,570.39c0,0-20.78,20.91-61.53,6.55c-4.46-1.57-11.09-6.35-15.94-9.02
			c-54.14-29.88-18.46-32.22-18.46-32.22s47.79-0.69,50.43-0.67c2.64,0.02,23.91,6.91,35.93,11.88c12.02,4.97,12.18,7.23,12.87,9.76
			C753.83,559.18,756.85,571.64,749.84,570.39"/>
		<path class="st12" d="M749.84,570.39c0,0-8.02,8.06-23.86,10.73c11.5-8.99,15.77-24.05,15.77-24.05c2.69-3.36,6.27-4.15,9.98-3.54
			c0.93,1.13,1.12,2.11,1.4,3.13C753.83,559.18,756.85,571.64,749.84,570.39"/>
		<path class="st5" d="M766.49,563.25c0,0-30.29-48.99-92.75-34.31c0,0,16.09-17.87,64.17-9.49c0,0-63.94-38.98-118,29.29
			c0,0,16.19,50.09,83.28,49.32c0,0-46.51-14.65-56.51-41.48c0,0,19.01,17.57,42.05,20.55c0,0-25.01-11.48-32.35-24.17
			c0,0,40.33-31.26,96.86,12.07c0,0-4.84,8.96-18.89,14.01C746.45,579.25,761.37,574.43,766.49,563.25"/>
		<path class="st5" d="M630.67,515.91c-4.47-17.98-7.67-54.35,28.09-79.62l-11.74,27.46c60.3-34.09,100.74-11.33,123.53,4.48
			l8.62,43.06c-18.11-11.83-31.5-30.54-58.8-38.19c0,0,4.14,6.46,10.94,17.47c0,0-39.44-27.27-87.35,3.09L630.67,515.91z"/>
		<path class="st5" d="M256.75,572.34c-3.14-7.32-13.21-19.31-17.84-20.5c-4.94-1.26-4.02-23.11,1.84-34.25
			c5.86-11.13,18.73-18.4,18.73-18.4c-28.78-10.14-36.56,20.13-36.56,20.13c6.83-51.66,40.56-37.04,40.56-37.04
			c-4.99-11.98-17.14-13.78-17.14-13.78c17.85-5.71,28.21,11.45,25.78,23c-2.43,11.55-2.47,16.46,0.28,22.1
			c1.46,2.99,2.13,6.23,1.55,9.66c-0.52,3.05,1.05,23.17-1.8,26.52c-6.07,7.11-4.64,14.71-4.64,14.71
			c0.15,7.72,0.71,17.75-2.28,19.26c-2.99,1.52-4.89-0.96-7.9-9.86C257.15,573.34,256.95,572.82,256.75,572.34"/>
		<path class="st5" d="M447.18,477.25c11.38,0,20.6,9.22,20.6,20.6c0,11.38-9.22,20.6-20.6,20.6c-11.38,0-20.6-9.22-20.6-20.6
			C426.58,486.48,435.8,477.25,447.18,477.25"/>
		<path class="st5" d="M458.14,492.38c3.29,0,5.95,2.66,5.95,5.95c0,3.29-2.66,5.95-5.95,5.95c-3.29,0-5.95-2.66-5.95-5.95
			C452.19,495.04,454.85,492.38,458.14,492.38"/>
		<path class="st5" d="M437.18,501.55c1.18,0,2.14,0.96,2.14,2.14c0,1.18-0.96,2.14-2.14,2.14c-1.18,0-2.14-0.96-2.14-2.14
			C435.04,502.51,436,501.55,437.18,501.55"/>
		<path class="st5" d="M700.71,532.05c-11.38,0-20.6,9.22-20.6,20.6c0,11.38,9.22,20.6,20.6,20.6c11.38,0,20.6-9.22,20.6-20.6
			C721.31,541.27,712.09,532.05,700.71,532.05"/>
		<path class="st5" d="M689.75,547.18c-3.29,0-5.95,2.66-5.95,5.95c0,3.29,2.66,5.95,5.95,5.95c3.29,0,5.95-2.66,5.95-5.95
			C695.7,549.84,693.04,547.18,689.75,547.18"/>
		<path class="st5" d="M710.71,556.34c-1.18,0-2.14,0.96-2.14,2.14c0,1.18,0.96,2.14,2.14,2.14c1.18,0,2.14-0.96,2.14-2.14
			C712.85,557.3,711.89,556.34,710.71,556.34"/>
		<path class="st5" d="M251.67,621.22c6.33,0,11.46,7.3,11.46,16.3c0,9-5.13,16.3-11.46,16.3c-6.33,0-11.46-7.3-11.46-16.3
			C240.21,628.52,245.34,621.22,251.67,621.22"/>
		<path class="st9" d="M550.46,775.53c0,0,36.2,3.1,59.18,3.1c22.98,0,28.58,12.62,12.86,20.12c-15.72,7.5-71.21,3.45-81.93-2.02
			C517.85,785.12,528.78,775.79,550.46,775.53"/>
		<path class="st9" d="M477.57,434.18c12.87,5.02,21.4,13.96,19.05,19.96c-2.34,6.01-10.66-2.24-23.52-7.26
			c-12.87-5.02-25.41-4.92-23.07-10.92C452.38,429.96,464.71,429.16,477.57,434.18"/>
		<path class="st9" d="M251.67,627.45c3.91,0,7.08,4.51,7.08,10.07c0,5.56-3.17,10.07-7.08,10.07c-3.91,0-7.08-4.51-7.08-10.07
			C244.59,631.96,247.76,627.45,251.67,627.45"/>
		<path class="st9" d="M559.57,654.05c15.71,8.71,46.09,2.16,57.82-13.46c13.07-17.39-8.91-30.49-8.91-53.69
			c-6.74,25.36,11.52,50.43-21.79,43.7C554.08,624.03,536.43,641.22,559.57,654.05"/>
		<path class="st13" d="M481.7,720.89c0,0,42.43-6.89,77.25,15.05c0,0,31.28-5.89,66.19,9.34c0,0-23.35-17.72-65.1-14.05
			C538.69,718.2,504.84,713.97,481.7,720.89"/>
		<path class="st5" d="M268.91,428.77c0,0-0.26-88.17,32.01-151.64c-13.8,9.5-25.61,22.78-34.09,42.43c0,0-14.51-98.65,76.16-129.84
			c0,0,19.22-114.24,145.43-99.73c0,0-48.42,17.22-58.03,42.61c91.49-57.51,235.81,33.35,301.56-28.11c0,0-3.44,31.73-34.64,44.61
			c0,0,188.59-32.64,184.24,163.56c0,0-10.88-29.01-30.83-51.5c0,0,16.14,51.85-15.18,146.49c-3.19,9.64-6.87,19.72-11.11,30.23
			c-6.34-28.69-2.42-105.08-123.31-139.18c0,0,34.82,17.05,57.3,61.65c-74.05-91.68-238.34-53.05-303.56-105.54
			c0,0-46.06,77.98-117.15,99.74l-39.17,159.03l-12.38-9.92l-5-38.58C281.18,465.1,274.44,427.09,268.91,428.77"/>
		<path class="st5" d="M454.87,254.82c0,0,20.65,66.56,143.96,72.72c0,0-85.55-28.57-99.73-75.8
			C484.91,204.52,462.1,219.47,454.87,254.82"/>
		<path class="st14" d="M386.93,926.07c0,0,27.04,47.59,80.63,61.82c0,0-36.99-17.95-45.61-34c0,0,53.13,47.51,131.83,11.24
			c0,0-10.97,14.51-34.73,19.86c0,0,53.13-5.35,83.78-38.81C550.88,1032.38,425.62,1025.33,386.93,926.07"/>
		<path class="st9" d="M358.14,597.37c0,0-19.62,65.5,37.32,92.52c0,0-26.29-28.47-12.33-65.28
			C397.09,587.79,375.15,592.33,358.14,597.37"/>
		<path class="st14" d="M417.14,171.24c0,0,43.34-44.07,129.29-30.47c0,0-40.26-0.54-64.37,11.79c0,0,60.2-17.41,135.46,13.78
			c75.25,31.19,139.63,25.75,139.63,25.75s-46.78,19.95-122.04-1.81c-31.79-9.19-60.08-17.67-88.72-22.85
			c44.17,14.06,77.12,38.63,77.12,38.63C524.1,162.19,417.14,171.24,417.14,171.24"/>
		<path class="st14" d="M792.69,233.08c0,0,43.7,38.08,37.36,101.37c0,0-29.74-65.1-132.92-66.01c0,0,70.63-14.87,109.44,20.58
			c0,0-18.59-45.88-84.14-52.31c0,0,54.4-5.35,83.78,29.47L792.69,233.08z"/>
	</g>
</g>
</svg>
