<svg width="1310" height="382" viewBox="0 0 1310 382" fill="none" xmlns="http://www.w3.org/2000/svg">
<g clip-path="url(#clip0_1_3)">
<path d="M0.130005 180.64C0.130005 176.99 0.130005 173.34 0.130005 169.68C0.740005 166.79 1.14 163.84 1.98 161.02C5.19 150.21 11.35 142.01 22.55 138.47C23.98 138.02 25.47 137.76 26.89 137.42C27.82 131.31 28.42 125.36 27.22 119.24C25.47 110.34 24.6 101.36 26.11 92.27C29.06 74.5 37.83 60.87 54.07 52.49C55.47 51.77 56.23 50.88 56.76 49.42C66.68 22.02 89.63 8.45001 118.08 11.1C129.73 12.19 141.35 13.67 152.98 14.98C156.89 15.42 160.79 15.92 164.69 16.4C164.69 16.53 164.69 16.66 164.69 16.79C160.56 18.29 156.42 19.78 152.29 21.28C155.43 22.08 158.44 22.51 161.45 22.92C170.79 24.19 180.13 25.59 189.61 24.95C195.79 24.53 201.25 22.6 205.8 18.09C211.36 12.58 217.21 7.35001 222.91 1.98001C223.44 1.48001 223.84 0.860009 224.3 0.290009C224.45 0.290009 224.6 0.290009 224.76 0.290009C223.56 11.3 222.36 22.32 221.15 33.44C222.31 33.63 223.73 33.87 225.15 34.09C251.5 38.25 270.22 55.78 275.92 81.8C276.92 86.38 277.44 91.07 278.19 95.71C278.19 102.41 278.19 109.1 278.19 115.8C278.07 116.92 277.88 118.03 277.85 119.15C277.6 130.71 277.37 142.26 277.15 153.82C277.12 155.47 277.15 157.13 277.15 158.78C276.93 158.81 276.71 158.84 276.49 158.87C272.74 148.89 268.98 138.91 265.11 128.62C263.12 135.18 261.33 141.28 259.41 147.35C258.52 150.17 257.07 152.84 256.44 155.71C254.69 163.64 253.2 171.62 251.69 179.6C249.31 192.18 248 204.87 248.08 217.68C248.15 228.94 247.87 240.17 246.31 251.36C242.52 278.57 232.38 303.06 214.74 324.19C201.03 340.63 184.75 354.36 167.7 367.19C159.71 373.2 150.71 377.21 140.98 379.49C137.3 380.35 133.54 380.86 129.82 381.53C126.02 381.53 122.21 381.53 118.41 381.53C116.17 381.15 113.93 380.84 111.7 380.39C90.89 376.24 76.42 363.96 66.87 345.37C64.89 341.52 62.94 337.66 60.81 333.89C55.98 325.32 49.25 318.29 42.33 311.42C35.13 304.28 29.28 296.21 25.7 286.62C21.68 275.83 20.2 264.56 19.29 253.17C19.22 252.26 18.73 251.07 18.03 250.56C11.83 246.1 8.01 240.1 6 232.82C4.25 226.48 4.3 220.01 4.7 213.57C5.12 206.91 4.68 200.47 2.69 194.02C1.33 189.72 0.940005 185.11 0.130005 180.64Z" fill="#E8D6CD"/>
<path fill-rule="evenodd" clip-rule="evenodd" d="M29.54 244.09C28.13 243.67 26.79 243.1 25.61 242.44C18.01 238.16 15.3 229.92 15.14 221.62C15.06 217.64 15.16 213.71 15.38 209.74C15.5 207.49 15.7 205.15 15.6 202.91C15.51 200.88 15.12 199.03 14.53 197.09C11.26 186.41 9.00001 173.13 12.59 162.24C15.14 154.5 21.05 147.84 29.67 147.55C32.35 147.46 34.84 148.01 37.09 149.03C37.47 146.8 37.88 144.59 38.31 142.43C41 128.78 44.95 114.89 50.76 102.23C57.97 86.5 68.9 71.08 85.44 64.35C105.77 56.07 134.12 57.35 155.47 60.53C171.5 62.92 188.05 66.92 203.19 72.77C213.34 76.69 227.5 83.27 234.22 92.17C238.74 97.84 242.26 107.25 244.02 114.09C249.25 134.34 247.13 156.19 241.66 176.15C240.94 179.56 240.39 183.11 239.9 186.56C238.7 194.95 237.93 203.46 237.71 211.94C237.55 217.82 237.77 223.71 237.61 229.61C237.37 238.51 236.57 247.34 234.96 256.11C230.46 280.55 220.05 302.26 203.58 320.93C197.26 328.09 189.58 335.05 182.43 341.37C175.44 347.55 167.87 354.05 160.19 359.35C147.7 367.98 131.42 372.2 116.34 370.1C97.62 367.49 83.78 355.87 75.77 339.02C71.46 329.95 66.42 321.6 59.82 314C55.25 308.74 50.04 304.13 45.5 298.9C39.93 292.48 36.45 285.93 34.04 277.76C30.94 267.27 29.91 255.29 29.54 244.09Z" fill="#211618"/>
<path fill-rule="evenodd" clip-rule="evenodd" d="M81.52 336.28C57.97 286.73 37.05 307.51 35.78 238.53C35.78 238.53 21.88 239.79 21.52 221.49C21.23 206.82 23.27 203.87 20.62 195.22C7.85999 153.49 33.63 144.86 41.69 162.71C41.69 162.71 48.19 86.4 87.83 70.26C127.47 54.12 213.2 74.74 229.16 96.09C229.16 96.09 249.96 121.92 235.44 174.65C235.44 174.65 231.85 191.51 231.31 211.78C230.86 228.69 235.53 275.05 198.77 316.72C190 326.66 167.95 346.23 156.54 354.12C135.15 368.89 98.05 371.07 81.52 336.28Z" fill="#211618"/>
<path fill-rule="evenodd" clip-rule="evenodd" d="M91.87 270.31C91.87 270.31 94.13 281.71 94.4 293.73L98.03 288.3L97.9 306.55C97.9 306.55 105.97 322.6 131.21 323.99C131.21 323.99 122.6 321.16 119.46 315.47C119.46 315.47 134.57 326.28 156.81 320.4C156.81 320.4 155.6 322.51 151.65 324.39C151.65 324.39 167.21 323.09 173.17 308.7C179.13 294.31 182.9 286.06 182.9 286.06L179.75 277.4L137.98 271.76C137.98 271.76 114.1 266.62 112.36 265.69C110.62 264.76 94.59 261.06 94.59 261.06C94.59 261.06 91.16 263.87 91.87 270.31Z" fill="#E2A38D"/>
<path fill-rule="evenodd" clip-rule="evenodd" d="M91.87 270.31C91.87 270.31 94.13 281.71 94.4 293.73L98.03 288.3L97.9 306.55C97.9 306.55 102.75 316.2 116.69 321.18C113.56 310.38 119.7 297.01 119.7 297.01L113 291.78C125.72 297.08 135.75 295.49 135.75 295.49C123.73 293.56 109.97 284.42 111.45 278.45C112.93 272.49 127.92 275.21 127.92 275.21C128.32 273.14 128.35 271.27 128.07 269.58C121.28 268.06 113.33 266.21 112.36 265.69C110.62 264.76 94.59 261.06 94.59 261.06C94.59 261.06 91.16 263.87 91.87 270.31Z" fill="#CE8D76"/>
<path fill-rule="evenodd" clip-rule="evenodd" d="M29.2 237.1C25.55 235.23 21.71 231 21.52 221.5C21.23 206.83 23.27 203.88 20.62 195.23C7.85999 153.5 33.63 144.87 41.69 162.72C41.69 162.72 48.19 86.41 87.83 70.27C127.47 54.13 213.2 74.75 229.16 96.1C229.16 96.1 249.96 121.93 235.44 174.66C235.44 174.66 231.85 191.52 231.31 211.79C231.04 222.08 232.66 243.28 225.68 267.7C224.93 273.26 217.84 283.45 208.35 283.68C206.45 266.55 189.48 256.17 189.48 256.17C190.42 259.94 190.06 264.96 190.06 264.96C184.14 252.41 171.5 242.9 171.5 242.9C169.36 241.45 167.49 240.78 165.91 240.55C165.92 240.46 165.93 240.37 165.95 240.27L166.04 238.16L166.06 236.05C162.27 237.66 154.61 239.88 147.36 237.83C144.33 236.97 140.93 234.99 138.95 232.12L135.06 231.84C135.06 231.84 131.16 232.52 130.72 235.85C111.45 238.73 101.65 247.73 101.65 247.73C102.73 245.35 106.13 241.14 106.13 241.14C84.07 247.6 77.55 267.84 77.55 267.84C76.91 265.4 76.73 262.21 76.81 259.95C73.08 265.75 73.13 275.21 75.2 282.65C65.21 275.06 61.7 254.01 61.7 254.01C46.58 248.07 39.24 227.66 39.24 227.66C39.24 227.66 37.26 237.93 29.2 237.1Z" fill="#DBAB9A"/>
<path fill-rule="evenodd" clip-rule="evenodd" d="M244.01 136.47C248.46 146.68 249.92 160.3 246.24 173.69C246.24 173.69 243.47 187.55 242.93 207.81C242.66 218.1 242.91 237.12 235.94 261.53C235.44 265.28 221.81 277.27 216.76 280.76C223.79 260.42 223.41 240.61 223.41 240.61C220.54 249.49 216.15 252.27 216.15 252.27C223.14 228.06 220.1 202.27 220.1 202.27L220.91 200.39L219.43 197.19C216.64 193.63 203.76 186.21 203.76 186.21C208.32 186.16 212.04 186.84 214.93 187.65C229.71 191.75 227.83 179.06 223.24 175.46L220.9 159.39L224.48 145.2L230.56 114.49C231.14 111.85 246.12 126.39 244.01 136.47Z" fill="#EBD6CA"/>
<path fill-rule="evenodd" clip-rule="evenodd" d="M183.03 153.84C183.03 153.84 206.4 143.84 225.96 163.9L222.48 166.47C222.48 166.47 209.93 159.12 193.6 163.6C177.28 168.08 175.84 166.47 175.84 166.47C175.84 166.47 180.15 153.95 183.03 153.84Z" fill="#EBD6CA"/>
<path fill-rule="evenodd" clip-rule="evenodd" d="M132.8 232.74C131.85 233.34 130.93 234.31 130.73 235.83C117.48 237.81 108.71 242.68 104.52 245.54C104.32 245.07 104.12 244.57 103.93 244.05C105.07 242.46 106.15 241.12 106.15 241.12C105.15 241.41 104.19 241.73 103.25 242.08C102.75 240.52 102.29 238.78 101.88 236.85C95.78 208.42 123.29 203.84 123.29 203.84C128.15 203.85 119.09 211.47 119.09 211.47L113.53 221.07L115.42 231.59C115.41 231.6 128.97 232.17 132.8 232.74Z" fill="#BC7266"/>
<path fill-rule="evenodd" clip-rule="evenodd" d="M183.87 151.87C146.67 174.24 173.96 205.18 172.67 222.67C172.67 222.67 174.49 212.07 173.13 200.46C172.83 200.04 172.52 199.62 172.18 199.2L172.84 198.29C172.73 197.54 172.6 196.79 172.46 196.04C171.98 193.52 173.31 193.17 175.77 194.25L177.73 191.53L188.15 180.39C188.15 180.39 181.51 170.42 196.57 165.67C211.64 160.92 195.76 160.92 195.22 160.92C194.68 160.92 186.07 165.13 184.82 165.13C183.57 165.12 170.66 166.2 183.87 151.87Z" fill="#CE8D76"/>
<path fill-rule="evenodd" clip-rule="evenodd" d="M111.67 227.36L109.68 224.63L110.08 221.13L111.73 217.73C115.6 209.67 121.51 208.6 123.66 202.99C125.31 198.69 125.27 192.73 122.15 188.67L103.14 190.37L91.89 186.98C64.93 198.64 59.03 244.18 94.71 233.62C101.87 231.51 106.95 228.76 111.67 227.36ZM23 231.69C21.92 229.35 21.61 225.48 21.53 221.5C21.24 206.83 23.28 203.88 20.63 195.22C7.87 153.49 33.64 144.86 41.7 162.71C41.7 162.71 47.22 97.92 79.1 75.11C103.42 75.49 108.55 62.98 107.1 83.54C109.04 100.82 100.95 116.17 93.14 127.87C86.35 138.04 83.14 149.82 87.22 162.35C87.22 162.35 81.8 163.98 79.13 167.98C79.13 167.98 85.56 168.53 91.52 167.05C92.24 166.87 92.82 166.6 93.28 166.26C93.94 166.57 94.64 166.88 95.37 167.17C119 176.6 120.89 178.84 120.89 178.84L119.07 173.43C126.78 170.91 133.7 161.13 128.22 146.93L139.23 159.42L143.35 157.54L145.59 150.9L144.21 140.07C144.21 140.07 154.55 152.34 145.41 172.43L149.8 169.16C149.8 169.16 132.22 189.07 135.99 208.44C135.99 208.44 121.15 207.81 116.89 216.6C112.63 225.39 126.48 228.08 126.48 228.08L125.96 228.9C127.16 229.55 128.42 230.34 129.75 231.3C130.63 231.93 131.43 232.57 132.16 233.22C131.47 233.82 130.88 234.67 130.73 235.84C111.46 238.72 101.66 247.73 101.66 247.73C102.74 245.35 106.14 241.14 106.14 241.14C84.08 247.6 77.56 267.84 77.56 267.84C76.92 265.4 76.74 262.21 76.82 259.95C73.09 265.75 73.14 275.21 75.21 282.65C67.13 276.51 63.2 263.84 61.71 254.01C46.59 248.07 39.25 227.67 39.25 227.67C39.16 227.73 38.86 231.74 36.56 234.51C31.84 240.19 25.57 237.28 23 231.69Z" fill="#CE8D76"/>
<path fill-rule="evenodd" clip-rule="evenodd" d="M23 231.69C21.92 229.35 21.61 225.48 21.53 221.5C21.38 213.81 21.87 209.34 21.98 205.58C21.9 209.84 22.04 235.89 37.2 233.64C37.01 233.94 36.8 234.23 36.57 234.5C31.84 240.19 25.57 237.28 23 231.69Z" fill="#BC7266"/>
<path fill-rule="evenodd" clip-rule="evenodd" d="M17.86 183.4C13.52 155.41 30.12 148.16 38.9 158.27C16.91 156.96 17.8 182.23 17.86 183.4Z" fill="#BC7266"/>
<path fill-rule="evenodd" clip-rule="evenodd" d="M122.21 188.76L122.14 188.67L110.96 192.49C109.53 192.6 108.57 192.59 108.57 192.59C76.16 191.49 79.12 167.99 79.12 167.99C104.62 164.36 111.92 171 111.92 171C111.92 171 121.34 177.64 122.28 178.58C123.22 179.52 125.73 181.14 123.45 186.92C123.18 187.62 122.75 188.23 122.21 188.76Z" fill="#BC7266"/>
<path fill-rule="evenodd" clip-rule="evenodd" d="M83.59 173.15C83.59 173.15 87.19 183.65 103.36 185.49C105.13 185.69 108.16 185.16 110.24 185.06C133.49 183.84 121.79 177.18 121.79 177.18C121.79 177.18 105.72 169.09 104.82 168.66C103.92 168.23 95.58 167.07 90.7 166.78C85.81 166.49 85.39 167.23 84.74 167.97C84.08 168.7 81.01 172.42 83.59 173.15Z" fill="white"/>
<path fill-rule="evenodd" clip-rule="evenodd" d="M83.59 173.15C83.59 173.15 85 177.27 90.03 180.8C87.39 174.69 90.69 169.8 90.69 169.8C89.73 167.88 87.03 167.87 84.14 168.67C83.12 170.01 81.5 172.56 83.59 173.15Z" fill="#C0C0C0"/>
<path fill-rule="evenodd" clip-rule="evenodd" d="M111.73 217.74C111.73 217.74 106.35 229.42 121.8 231.03C114.45 228.19 117.06 225.39 122.67 224.76C129.7 223.97 139.77 228.9 141.01 237.16C141.19 238.34 142.18 238.93 144.77 238.61C144.77 238.61 141.72 241.52 137.87 239.46C134.01 237.4 130.34 235.47 122.94 235.65C118.75 235.75 112.56 234.24 109.76 230.51C107.62 227.64 106.44 222.7 111.73 217.74Z" fill="#211618"/>
<path fill-rule="evenodd" clip-rule="evenodd" d="M152.73 239.71C152.73 239.71 155.79 242.9 160.8 239.33C177.95 227.1 182.81 237.34 178.83 241.15C182.81 239.88 186.66 234.87 181.45 227.91C190.2 233.24 186.59 249.27 167.69 243.03C162.2 241.22 153.21 245.28 152.73 239.71Z" fill="#211618"/>
<path fill-rule="evenodd" clip-rule="evenodd" d="M79.12 168C79.12 168 97.44 156.39 116.18 171.63C116.18 171.63 113.67 162.93 96 157.86C96 157.86 124.07 155.17 131.15 187.18C131.15 187.18 112.63 203.68 92.41 191.71C92.41 191.71 111.51 195.16 120.79 185.43C120.79 185.43 111.46 188.26 103.17 185.47C103.17 185.47 113.53 185.69 118.1 182.6C118.1 182.6 109.58 165.38 83.31 170.76C83.31 170.76 83.94 175.24 87.85 179.03C83.2 178.04 79.02 172.62 79.12 168Z" fill="#211618"/>
<path fill-rule="evenodd" clip-rule="evenodd" d="M138.39 171.34C143.23 166.32 151.12 155.06 144.22 140.09L142.88 151.26C142.88 151.26 126.51 118.66 83.56 123.5L91.45 127.13L74.37 134.26L82.22 137.89C82.22 137.89 96.03 134.12 112.57 138.03C112.57 138.03 107.82 137.94 98.31 140.14C98.31 140.14 125.71 141.31 135.62 160.23L138.39 171.34Z" fill="#211618"/>
<path fill-rule="evenodd" clip-rule="evenodd" d="M97.73 258.34C97.73 258.34 100.76 260 106.59 261.16C112.42 262.33 121.07 264.25 123.85 265.33C133.07 268.9 164.52 273.71 173.49 273.54C176.41 273.48 177.97 273.36 177.97 273.36C177.97 273.36 181.96 269.19 169.32 265.69C200.38 267.15 190.3 294.59 166.5 295.6C166.5 295.6 171.72 294.83 175.5 290.7C178.45 287.47 178.55 284.17 177.13 282.5C175.03 280.04 169.67 280.03 165.67 280.04C147.49 280.1 120.69 275.25 105.95 266.99C94.34 260.48 95.71 272.54 103.01 278.83C94.55 276.73 85.73 264.95 89.99 256.8C92.8 251.42 101.28 251.22 107.41 253.14C102.92 253.43 99.48 255.08 97.73 258.34Z" fill="#211618"/>
<path fill-rule="evenodd" clip-rule="evenodd" d="M110.85 290.47C110.85 290.47 131.12 304.86 167.57 298.9C167.57 298.9 161.47 303.74 156.18 305C149.45 311.11 134.82 311.64 130.98 303.25C130.98 303.24 114.7 301.36 110.85 290.47Z" fill="#211618"/>
<path fill-rule="evenodd" clip-rule="evenodd" d="M218.16 202.36C218.16 202.36 210.33 210.23 194.99 204.82C193.31 204.23 190.81 202.43 188.99 201.42C168.61 190.17 182.04 189.29 182.04 189.29C182.04 189.29 200.04 189.03 201.03 189.04C202.02 189.05 210.03 191.64 214.56 193.51C219.08 195.38 219.14 196.23 219.41 197.18C219.66 198.14 220.8 202.83 218.16 202.36Z" fill="white"/>
<path fill-rule="evenodd" clip-rule="evenodd" d="M218.16 202.36C218.16 202.36 215.14 205.4 209.18 206.4C213.51 203.01 215.12 197.35 215.12 197.35C216.13 196.09 217.48 195.79 218.88 196.02C219.23 196.45 219.3 196.81 219.41 197.2C219.66 198.14 220.8 202.83 218.16 202.36Z" fill="#C0C0C0"/>
<path fill-rule="evenodd" clip-rule="evenodd" d="M224.43 199.67C224.43 199.67 213.02 181.22 189.51 186.75C189.51 186.75 195.57 180.02 213.67 183.18C213.67 183.18 189.59 168.5 169.24 194.21C169.24 194.21 175.34 213.07 200.6 212.78C200.6 212.78 183.09 207.27 179.32 197.16C179.32 197.16 186.48 203.77 195.15 204.9C195.15 204.9 185.73 200.58 182.97 195.8C182.97 195.8 198.15 184.03 219.44 200.35C219.44 200.35 217.62 203.72 212.33 205.62C216.88 205.69 222.5 203.88 224.43 199.67Z" fill="#211618"/>
<path fill-rule="evenodd" clip-rule="evenodd" d="M173.29 181.85C171.61 175.08 170.4 161.39 183.87 151.87L179.45 162.21C202.15 149.37 217.38 157.95 225.96 163.9L229.21 180.11C222.39 175.65 217.35 168.61 207.07 165.73C207.07 165.73 208.63 168.16 211.19 172.31C211.19 172.31 196.34 162.04 178.3 173.47L173.29 181.85Z" fill="#211618"/>
<path fill-rule="evenodd" clip-rule="evenodd" d="M32.5 203.1C31.32 200.34 27.53 195.83 25.78 195.38C23.92 194.91 24.27 186.68 26.47 182.48C28.68 178.29 33.52 175.55 33.52 175.55C22.68 171.73 19.76 183.13 19.76 183.13C22.33 163.68 35.03 169.18 35.03 169.18C33.15 164.67 28.58 163.99 28.58 163.99C35.3 161.84 39.2 168.3 38.29 172.65C37.38 177 37.36 178.85 38.4 180.97C38.95 182.1 39.2 183.31 38.98 184.61C38.78 185.76 39.38 193.34 38.3 194.59C36.01 197.27 36.55 200.13 36.55 200.13C36.61 203.04 36.82 206.81 35.69 207.38C34.56 207.95 33.85 207.02 32.72 203.67C32.65 203.47 32.58 203.28 32.5 203.1Z" fill="#211618"/>
<path fill-rule="evenodd" clip-rule="evenodd" d="M104.2 167.29C108.48 167.29 111.96 170.76 111.96 175.05C111.96 179.34 108.49 182.81 104.2 182.81C99.92 182.81 96.44 179.34 96.44 175.05C96.44 170.76 99.92 167.29 104.2 167.29Z" fill="#211618"/>
<path fill-rule="evenodd" clip-rule="evenodd" d="M108.33 172.99C109.57 172.99 110.57 173.99 110.57 175.23C110.57 176.47 109.57 177.47 108.33 177.47C107.09 177.47 106.09 176.47 106.09 175.23C106.09 173.99 107.09 172.99 108.33 172.99Z" fill="#211618"/>
<path fill-rule="evenodd" clip-rule="evenodd" d="M100.44 176.44C100.88 176.44 101.25 176.8 101.25 177.25C101.25 177.69 100.89 178.06 100.44 178.06C99.99 178.06 99.63 177.7 99.63 177.25C99.63 176.8 99.99 176.44 100.44 176.44Z" fill="#211618"/>
<path fill-rule="evenodd" clip-rule="evenodd" d="M199.66 187.92C195.38 187.92 191.9 191.39 191.9 195.68C191.9 199.96 195.37 203.44 199.66 203.44C203.94 203.44 207.42 199.97 207.42 195.68C207.42 191.4 203.94 187.92 199.66 187.92Z" fill="#211618"/>
<path fill-rule="evenodd" clip-rule="evenodd" d="M195.54 193.62C194.3 193.62 193.3 194.62 193.3 195.86C193.3 197.1 194.3 198.1 195.54 198.1C196.78 198.1 197.78 197.1 197.78 195.86C197.78 194.62 196.77 193.62 195.54 193.62Z" fill="#211618"/>
<path fill-rule="evenodd" clip-rule="evenodd" d="M203.43 197.07C202.98 197.07 202.62 197.43 202.62 197.88C202.62 198.32 202.98 198.69 203.43 198.69C203.87 198.69 204.24 198.33 204.24 197.88C204.23 197.43 203.87 197.07 203.43 197.07Z" fill="#211618"/>
<path fill-rule="evenodd" clip-rule="evenodd" d="M30.59 221.5C32.97 221.5 34.91 224.25 34.91 227.64C34.91 231.03 32.98 233.78 30.59 233.78C28.21 233.78 26.27 231.03 26.27 227.64C26.27 224.25 28.21 221.5 30.59 221.5Z" fill="#211618"/>
<path fill-rule="evenodd" clip-rule="evenodd" d="M143.09 279.6C143.09 279.6 156.72 280.77 165.37 280.77C174.02 280.77 176.13 285.52 170.21 288.35C164.29 291.18 143.4 289.65 139.36 287.59C130.81 283.21 134.93 279.7 143.09 279.6Z" fill="#EBD6CA"/>
<path fill-rule="evenodd" clip-rule="evenodd" d="M115.65 151.08C120.49 152.97 123.71 156.34 122.82 158.6C121.94 160.86 118.81 157.76 113.96 155.87C109.12 153.98 104.39 154.02 105.27 151.76C106.16 149.48 110.8 149.18 115.65 151.08Z" fill="#EBD6CA"/>
<path fill-rule="evenodd" clip-rule="evenodd" d="M30.59 223.84C32.06 223.84 33.26 225.54 33.26 227.63C33.26 229.72 32.07 231.42 30.59 231.42C29.12 231.42 27.92 229.72 27.92 227.63C27.92 225.54 29.12 223.84 30.59 223.84Z" fill="#EBD6CA"/>
<path fill-rule="evenodd" clip-rule="evenodd" d="M146.52 233.86C152.44 237.14 163.87 234.67 168.29 228.79C173.21 222.24 164.94 217.31 164.94 208.58C162.4 218.13 169.28 227.57 156.73 225.04C144.45 222.55 137.81 229.03 146.52 233.86Z" fill="#EBD6CA"/>
<path fill-rule="evenodd" clip-rule="evenodd" d="M117.2 259.03C117.2 259.03 133.18 256.44 146.29 264.7C146.29 264.7 158.07 262.48 171.21 268.22C171.21 268.22 162.42 261.55 146.7 262.93C138.66 258.01 125.91 256.42 117.2 259.03Z" fill="#B3927F"/>
<path fill-rule="evenodd" clip-rule="evenodd" d="M37.08 149.04C37.08 149.04 36.98 115.84 49.13 91.94C43.93 95.52 39.49 100.52 36.29 107.92C36.29 107.92 30.83 70.78 64.97 59.03C64.97 59.03 72.21 16.02 119.73 21.48C119.73 21.48 101.5 27.97 97.88 37.52C132.33 15.87 186.67 50.08 211.42 26.94C211.42 26.94 210.12 38.89 198.38 43.74C198.38 43.74 269.39 31.45 267.75 105.33C267.75 105.33 263.65 94.41 256.14 85.94C256.14 85.94 262.22 105.46 250.43 141.1C249.23 144.73 247.84 148.52 246.25 152.48C243.86 141.68 245.34 112.91 199.82 100.08C199.82 100.08 212.93 106.5 221.4 123.29C193.52 88.77 131.66 103.32 107.11 83.55C107.11 83.55 89.77 112.91 63 121.1L48.25 180.98L43.59 177.25L41.71 162.73C41.7 162.72 39.16 148.41 37.08 149.04Z" fill="#211618"/>
<path fill-rule="evenodd" clip-rule="evenodd" d="M107.1 83.54C107.1 83.54 114.87 108.6 161.3 110.92C161.3 110.92 129.09 100.16 123.75 82.38C118.41 64.6 109.82 70.23 107.1 83.54Z" fill="#211618"/>
<path fill-rule="evenodd" clip-rule="evenodd" d="M81.52 336.28C81.52 336.28 91.7 354.2 111.88 359.56C111.88 359.56 97.95 352.8 94.71 346.76C94.71 346.76 114.71 364.65 144.35 350.99C144.35 350.99 140.22 356.45 131.28 358.47C131.28 358.47 151.29 356.46 162.82 343.86C143.25 376.31 96.08 373.65 81.52 336.28Z" fill="#2B1D20"/>
<path fill-rule="evenodd" clip-rule="evenodd" d="M70.68 212.52C70.68 212.52 63.29 237.18 84.73 247.35C84.73 247.35 74.83 236.63 80.09 222.77C85.34 208.91 77.08 210.62 70.68 212.52Z" fill="#EBD6CA"/>
<path fill-rule="evenodd" clip-rule="evenodd" d="M92.89 52.07C92.89 52.07 109.21 35.48 141.57 40.6C141.57 40.6 126.41 40.4 117.33 45.04C117.33 45.04 140 38.49 168.33 50.23C196.66 61.97 220.9 59.92 220.9 59.92C220.9 59.92 203.28 67.43 174.95 59.24C162.98 55.78 152.33 52.59 141.55 50.63C158.18 55.93 170.59 65.18 170.59 65.18C133.17 48.67 92.89 52.07 92.89 52.07Z" fill="#2B1D20"/>
<path fill-rule="evenodd" clip-rule="evenodd" d="M234.29 75.36C234.29 75.36 250.74 89.7 248.35 113.53C248.35 113.53 237.15 89.02 198.3 88.68C198.3 88.68 224.89 83.08 239.5 96.43C239.5 96.43 232.5 79.16 207.82 76.73C207.82 76.73 228.3 74.72 239.36 87.83L234.29 75.36Z" fill="#2B1D20"/>
<path d="M561.681 357.883H552.043V326.651H562.108C565.137 326.651 567.73 327.277 569.885 328.527C572.04 329.767 573.692 331.552 574.841 333.88C575.99 336.198 576.564 338.973 576.564 342.206C576.564 345.459 575.985 348.26 574.826 350.609C573.667 352.947 571.979 354.746 569.763 356.007C567.547 357.257 564.853 357.883 561.681 357.883ZM555.825 354.528H561.437C564.019 354.528 566.159 354.03 567.857 353.033C569.555 352.037 570.82 350.619 571.654 348.779C572.488 346.938 572.904 344.748 572.904 342.206C572.904 339.685 572.493 337.514 571.669 335.694C570.846 333.864 569.616 332.461 567.979 331.485C566.342 330.499 564.304 330.006 561.864 330.006H555.825V354.528ZM592.241 358.371C589.984 358.371 588.037 357.872 586.4 356.876C584.774 355.87 583.518 354.467 582.634 352.667C581.759 350.858 581.322 348.753 581.322 346.354C581.322 343.955 581.759 341.84 582.634 340.01C583.518 338.17 584.748 336.736 586.324 335.71C587.91 334.673 589.76 334.154 591.875 334.154C593.095 334.154 594.3 334.357 595.489 334.764C596.679 335.171 597.761 335.832 598.737 336.747C599.713 337.651 600.491 338.851 601.071 340.345C601.65 341.84 601.94 343.68 601.94 345.866V347.391H583.884V344.28H598.28C598.28 342.958 598.016 341.779 597.487 340.742C596.968 339.705 596.226 338.887 595.26 338.287C594.305 337.687 593.176 337.387 591.875 337.387C590.442 337.387 589.201 337.743 588.154 338.455C587.117 339.156 586.319 340.071 585.76 341.199C585.201 342.328 584.921 343.538 584.921 344.829V346.903C584.921 348.672 585.226 350.171 585.836 351.402C586.456 352.621 587.315 353.552 588.413 354.192C589.511 354.823 590.787 355.138 592.241 355.138C593.186 355.138 594.04 355.006 594.803 354.741C595.576 354.467 596.242 354.06 596.801 353.521C597.36 352.972 597.792 352.291 598.097 351.478L601.574 352.454C601.208 353.633 600.593 354.67 599.729 355.565C598.864 356.449 597.797 357.14 596.526 357.639C595.255 358.127 593.827 358.371 592.241 358.371ZM624.006 339.705L620.773 340.62C620.57 340.081 620.27 339.558 619.873 339.049C619.487 338.531 618.958 338.104 618.287 337.768C617.616 337.433 616.757 337.265 615.71 337.265C614.277 337.265 613.082 337.595 612.127 338.256C611.181 338.907 610.708 339.736 610.708 340.742C610.708 341.637 611.034 342.343 611.684 342.862C612.335 343.38 613.352 343.812 614.734 344.158L618.211 345.012C620.306 345.52 621.866 346.298 622.893 347.345C623.92 348.382 624.433 349.719 624.433 351.356C624.433 352.698 624.047 353.897 623.274 354.955C622.512 356.012 621.444 356.846 620.072 357.456C618.699 358.066 617.103 358.371 615.283 358.371C612.894 358.371 610.917 357.852 609.351 356.815C607.786 355.778 606.794 354.263 606.377 352.271L609.793 351.417C610.119 352.677 610.734 353.623 611.639 354.253C612.554 354.884 613.748 355.199 615.222 355.199C616.9 355.199 618.232 354.843 619.218 354.131C620.214 353.409 620.712 352.545 620.712 351.539C620.712 350.725 620.427 350.044 619.858 349.495C619.289 348.936 618.415 348.519 617.235 348.245L613.331 347.33C611.186 346.822 609.61 346.034 608.604 344.966C607.608 343.889 607.109 342.541 607.109 340.925C607.109 339.603 607.481 338.434 608.223 337.418C608.975 336.401 609.997 335.603 611.288 335.023C612.589 334.444 614.063 334.154 615.71 334.154C618.028 334.154 619.848 334.662 621.17 335.679C622.501 336.696 623.447 338.038 624.006 339.705ZM629.851 357.883V334.459H633.449V357.883H629.851ZM631.68 330.555C630.979 330.555 630.374 330.316 629.866 329.838C629.368 329.361 629.119 328.786 629.119 328.115C629.119 327.444 629.368 326.87 629.866 326.392C630.374 325.914 630.979 325.675 631.68 325.675C632.382 325.675 632.982 325.914 633.48 326.392C633.988 326.87 634.242 327.444 634.242 328.115C634.242 328.786 633.988 329.361 633.48 329.838C632.982 330.316 632.382 330.555 631.68 330.555ZM649.496 367.154C647.757 367.154 646.263 366.931 645.013 366.483C643.762 366.046 642.72 365.467 641.886 364.745C641.063 364.033 640.407 363.271 639.919 362.458L642.786 360.445C643.111 360.872 643.523 361.36 644.021 361.909C644.519 362.468 645.201 362.951 646.065 363.357C646.939 363.774 648.083 363.983 649.496 363.983C651.387 363.983 652.947 363.525 654.178 362.61C655.408 361.695 656.023 360.262 656.023 358.31V353.552H655.718C655.453 353.979 655.077 354.507 654.589 355.138C654.111 355.758 653.42 356.312 652.515 356.8C651.621 357.278 650.411 357.517 648.886 357.517C646.995 357.517 645.297 357.069 643.793 356.175C642.298 355.28 641.114 353.979 640.239 352.271C639.375 350.563 638.943 348.489 638.943 346.049C638.943 343.65 639.365 341.56 640.209 339.781C641.053 337.992 642.227 336.609 643.732 335.633C645.236 334.647 646.975 334.154 648.947 334.154C650.472 334.154 651.682 334.408 652.576 334.917C653.481 335.415 654.172 335.984 654.65 336.625C655.138 337.255 655.514 337.773 655.779 338.18H656.145V334.459H659.622V358.554C659.622 360.567 659.164 362.203 658.249 363.464C657.344 364.735 656.124 365.665 654.589 366.255C653.064 366.855 651.367 367.154 649.496 367.154ZM649.374 354.284C650.818 354.284 652.038 353.953 653.034 353.292C654.03 352.632 654.788 351.681 655.306 350.441C655.825 349.2 656.084 347.716 656.084 345.988C656.084 344.3 655.83 342.811 655.321 341.52C654.813 340.229 654.061 339.217 653.064 338.485C652.068 337.753 650.838 337.387 649.374 337.387C647.849 337.387 646.578 337.773 645.562 338.546C644.555 339.319 643.798 340.356 643.289 341.657C642.791 342.958 642.542 344.402 642.542 345.988C642.542 347.615 642.796 349.053 643.305 350.304C643.823 351.544 644.586 352.52 645.592 353.231C646.609 353.933 647.869 354.284 649.374 354.284ZM669.809 343.792V357.883H666.21V334.459H669.687V338.119H669.992C670.54 336.93 671.374 335.974 672.492 335.252C673.611 334.52 675.054 334.154 676.823 334.154C678.409 334.154 679.797 334.479 680.987 335.13C682.176 335.771 683.101 336.747 683.762 338.058C684.423 339.359 684.753 341.006 684.753 342.999V357.883H681.154V343.243C681.154 341.403 680.676 339.969 679.721 338.943C678.765 337.906 677.454 337.387 675.786 337.387C674.638 337.387 673.611 337.636 672.706 338.134C671.811 338.632 671.105 339.359 670.586 340.315C670.068 341.271 669.809 342.43 669.809 343.792ZM703.895 357.883V326.651H707.677V354.528H722.195V357.883H703.895ZM727.563 357.883V334.459H731.162V357.883H727.563ZM729.393 330.555C728.691 330.555 728.086 330.316 727.578 329.838C727.08 329.361 726.831 328.786 726.831 328.115C726.831 327.444 727.08 326.87 727.578 326.392C728.086 325.914 728.691 325.675 729.393 325.675C730.094 325.675 730.694 325.914 731.192 326.392C731.701 326.87 731.955 327.444 731.955 328.115C731.955 328.786 731.701 329.361 731.192 329.838C730.694 330.316 730.094 330.555 729.393 330.555ZM741.108 349.343L741.047 344.89H741.779L752.027 334.459H756.48L745.561 345.5H745.256L741.108 349.343ZM737.753 357.883V326.651H741.352V357.883H737.753ZM752.637 357.883L743.487 346.293L746.049 343.792L757.212 357.883H752.637ZM769.968 358.371C767.711 358.371 765.765 357.872 764.128 356.876C762.501 355.87 761.246 354.467 760.361 352.667C759.487 350.858 759.05 348.753 759.05 346.354C759.05 343.955 759.487 341.84 760.361 340.01C761.246 338.17 762.476 336.736 764.052 335.71C765.637 334.673 767.488 334.154 769.602 334.154C770.822 334.154 772.027 334.357 773.217 334.764C774.406 335.171 775.489 335.832 776.465 336.747C777.441 337.651 778.218 338.851 778.798 340.345C779.377 341.84 779.667 343.68 779.667 345.866V347.391H761.612V344.28H776.007C776.007 342.958 775.743 341.779 775.214 340.742C774.696 339.705 773.954 338.887 772.988 338.287C772.032 337.687 770.904 337.387 769.602 337.387C768.169 337.387 766.929 337.743 765.881 338.455C764.845 339.156 764.046 340.071 763.487 341.199C762.928 342.328 762.649 343.538 762.649 344.829V346.903C762.649 348.672 762.954 350.171 763.564 351.402C764.184 352.621 765.043 353.552 766.141 354.192C767.239 354.823 768.515 355.138 769.968 355.138C770.914 355.138 771.768 355.006 772.53 354.741C773.303 354.467 773.969 354.06 774.528 353.521C775.087 352.972 775.519 352.291 775.824 351.478L779.301 352.454C778.935 353.633 778.32 354.67 777.456 355.565C776.592 356.449 775.524 357.14 774.254 357.639C772.983 358.127 771.554 358.371 769.968 358.371ZM795.024 326.651H799.355L808.016 341.23H808.382L817.044 326.651H821.375L810.09 345.012V357.883H806.308V345.012L795.024 326.651ZM831.981 358.371C829.867 358.371 828.011 357.867 826.415 356.861C824.829 355.854 823.589 354.446 822.694 352.637C821.81 350.827 821.367 348.712 821.367 346.293C821.367 343.853 821.81 341.723 822.694 339.903C823.589 338.083 824.829 336.67 826.415 335.664C828.011 334.657 829.867 334.154 831.981 334.154C834.096 334.154 835.946 334.657 837.532 335.664C839.128 336.67 840.369 338.083 841.253 339.903C842.148 341.723 842.595 343.853 842.595 346.293C842.595 348.712 842.148 350.827 841.253 352.637C840.369 354.446 839.128 355.854 837.532 356.861C835.946 357.867 834.096 358.371 831.981 358.371ZM831.981 355.138C833.588 355.138 834.909 354.726 835.946 353.902C836.983 353.079 837.751 351.996 838.249 350.654C838.747 349.312 838.996 347.859 838.996 346.293C838.996 344.727 838.747 343.268 838.249 341.916C837.751 340.564 836.983 339.471 835.946 338.638C834.909 337.804 833.588 337.387 831.981 337.387C830.375 337.387 829.053 337.804 828.016 338.638C826.979 339.471 826.212 340.564 825.714 341.916C825.215 343.268 824.966 344.727 824.966 346.293C824.966 347.859 825.215 349.312 825.714 350.654C826.212 351.996 826.979 353.079 828.016 353.902C829.053 354.726 830.375 355.138 831.981 355.138ZM862.85 348.306V334.459H866.449V357.883H862.85V353.918H862.606C862.057 355.107 861.203 356.119 860.044 356.952C858.885 357.776 857.422 358.188 855.653 358.188C854.189 358.188 852.887 357.867 851.749 357.227C850.61 356.576 849.715 355.6 849.065 354.299C848.414 352.987 848.089 351.335 848.089 349.343V334.459H851.688V349.099C851.688 350.807 852.165 352.169 853.121 353.186C854.087 354.202 855.317 354.711 856.812 354.711C857.706 354.711 858.616 354.482 859.541 354.024C860.477 353.567 861.259 352.865 861.89 351.92C862.53 350.975 862.85 349.77 862.85 348.306ZM885.607 326.651H890.121L900.734 352.576H901.1L911.714 326.651H916.228V357.883H912.69V334.154H912.385L902.625 357.883H899.209L889.45 334.154H889.145V357.883H885.607V326.651ZM933.144 358.371C930.887 358.371 928.94 357.872 927.303 356.876C925.677 355.87 924.421 354.467 923.537 352.667C922.662 350.858 922.225 348.753 922.225 346.354C922.225 343.955 922.662 341.84 923.537 340.01C924.421 338.17 925.651 336.736 927.227 335.71C928.813 334.673 930.663 334.154 932.778 334.154C933.998 334.154 935.203 334.357 936.392 334.764C937.581 335.171 938.664 335.832 939.64 336.747C940.616 337.651 941.394 338.851 941.973 340.345C942.553 341.84 942.843 343.68 942.843 345.866V347.391H924.787V344.28H939.183C939.183 342.958 938.918 341.779 938.39 340.742C937.871 339.705 937.129 338.887 936.163 338.287C935.208 337.687 934.079 337.387 932.778 337.387C931.344 337.387 930.104 337.743 929.057 338.455C928.02 339.156 927.222 340.071 926.663 341.199C926.104 342.328 925.824 343.538 925.824 344.829V346.903C925.824 348.672 926.129 350.171 926.739 351.402C927.359 352.621 928.218 353.552 929.316 354.192C930.414 354.823 931.69 355.138 933.144 355.138C934.089 355.138 934.943 355.006 935.706 354.741C936.478 354.467 937.144 354.06 937.703 353.521C938.263 352.972 938.695 352.291 939 351.478L942.477 352.454C942.111 353.633 941.496 354.67 940.631 355.565C939.767 356.449 938.7 357.14 937.429 357.639C936.158 358.127 934.73 358.371 933.144 358.371ZM955.21 358.432C953.726 358.432 952.379 358.152 951.169 357.593C949.959 357.024 948.998 356.205 948.287 355.138C947.575 354.06 947.219 352.759 947.219 351.234C947.219 349.892 947.484 348.804 948.012 347.97C948.541 347.127 949.247 346.466 950.132 345.988C951.016 345.51 951.992 345.154 953.06 344.92C954.138 344.676 955.22 344.483 956.308 344.341C957.731 344.158 958.885 344.021 959.77 343.929C960.664 343.828 961.315 343.66 961.722 343.426C962.139 343.192 962.347 342.785 962.347 342.206V342.084C962.347 340.579 961.935 339.41 961.112 338.577C960.298 337.743 959.063 337.326 957.406 337.326C955.688 337.326 954.341 337.702 953.365 338.455C952.389 339.207 951.703 340.01 951.306 340.864L947.89 339.644C948.5 338.221 949.314 337.113 950.33 336.32C951.357 335.516 952.475 334.957 953.685 334.642C954.905 334.317 956.105 334.154 957.284 334.154C958.036 334.154 958.9 334.246 959.876 334.429C960.863 334.601 961.813 334.962 962.728 335.511C963.653 336.06 964.421 336.889 965.031 337.997C965.641 339.105 965.946 340.589 965.946 342.45V357.883H962.347V354.711H962.164C961.92 355.219 961.513 355.763 960.944 356.342C960.375 356.922 959.617 357.415 958.672 357.822C957.726 358.228 956.572 358.432 955.21 358.432ZM955.759 355.199C957.182 355.199 958.382 354.919 959.358 354.36C960.344 353.801 961.086 353.079 961.584 352.194C962.093 351.31 962.347 350.38 962.347 349.404V346.11C962.194 346.293 961.859 346.461 961.34 346.613C960.832 346.755 960.242 346.883 959.571 346.994C958.911 347.096 958.265 347.188 957.635 347.269C957.015 347.34 956.511 347.401 956.125 347.452C955.19 347.574 954.315 347.772 953.502 348.047C952.699 348.311 952.048 348.712 951.55 349.251C951.062 349.78 950.818 350.502 950.818 351.417C950.818 352.667 951.281 353.613 952.206 354.253C953.141 354.884 954.326 355.199 955.759 355.199ZM976.114 343.792V357.883H972.515V334.459H975.992V338.119H976.297C976.846 336.93 977.679 335.974 978.798 335.252C979.916 334.52 981.359 334.154 983.128 334.154C984.714 334.154 986.102 334.479 987.292 335.13C988.481 335.771 989.406 336.747 990.067 338.058C990.728 339.359 991.058 341.006 991.058 342.999V357.883H987.459V343.243C987.459 341.403 986.982 339.969 986.026 338.943C985.07 337.906 983.759 337.387 982.091 337.387C980.943 337.387 979.916 337.636 979.011 338.134C978.116 338.632 977.41 339.359 976.891 340.315C976.373 341.271 976.114 342.43 976.114 343.792ZM1013.98 326.651V357.883H1010.2V326.651H1013.98ZM1031.26 334.459V337.509H1019.13V334.459H1031.26ZM1022.66 328.847H1026.26V351.173C1026.26 352.189 1026.41 352.952 1026.7 353.46C1027.01 353.958 1027.4 354.294 1027.86 354.467C1028.34 354.629 1028.84 354.711 1029.37 354.711C1029.77 354.711 1030.09 354.69 1030.35 354.65C1030.6 354.599 1030.81 354.558 1030.96 354.528L1031.69 357.761C1031.45 357.852 1031.11 357.944 1030.67 358.035C1030.23 358.137 1029.68 358.188 1029.01 358.188C1027.99 358.188 1026.99 357.969 1026.02 357.532C1025.05 357.095 1024.25 356.429 1023.61 355.534C1022.98 354.64 1022.66 353.511 1022.66 352.149V328.847Z" fill="#CE8D76"/>
<path d="M295.397 149.737L342.691 283.84H344.558L391.852 149.737H412.076L353.581 309.042H333.668L275.173 149.737H295.397ZM434.401 309.042V189.563H452.758V309.042H434.401ZM443.735 169.65C440.157 169.65 437.072 168.431 434.479 165.994C431.938 163.557 430.667 160.627 430.667 157.204C430.667 153.782 431.938 150.852 434.479 148.414C437.072 145.977 440.157 144.758 443.735 144.758C447.313 144.758 450.373 145.977 452.914 148.414C455.507 150.852 456.803 153.782 456.803 157.204C456.803 160.627 455.507 163.557 452.914 165.994C450.373 168.431 447.313 169.65 443.735 169.65ZM486.381 309.042V189.563H504.117V207.609H505.361C507.539 201.698 511.48 196.901 517.185 193.219C522.889 189.537 529.319 187.696 536.476 187.696C537.824 187.696 539.509 187.722 541.532 187.774C543.554 187.826 545.084 187.904 546.121 188.007V206.676C545.499 206.52 544.073 206.287 541.843 205.976C539.665 205.613 537.357 205.431 534.92 205.431C529.112 205.431 523.926 206.65 519.363 209.087C514.851 211.473 511.273 214.792 508.628 219.044C506.035 223.244 504.739 228.041 504.739 233.434V309.042H486.381ZM603.041 311.843C595.47 311.843 588.599 310.417 582.428 307.564C576.257 304.66 571.356 300.486 567.726 295.041C564.096 289.544 562.281 282.906 562.281 275.128C562.281 268.283 563.629 262.734 566.326 258.482C569.022 254.177 572.627 250.807 577.138 248.369C581.65 245.932 586.628 244.117 592.073 242.924C597.57 241.68 603.093 240.694 608.641 239.968C615.901 239.035 621.787 238.335 626.299 237.868C630.862 237.35 634.181 236.494 636.255 235.301C638.382 234.109 639.445 232.034 639.445 229.078V228.456C639.445 220.781 637.344 214.818 633.144 210.565C628.995 206.313 622.695 204.187 614.242 204.187C605.478 204.187 598.607 206.106 593.629 209.943C588.65 213.78 585.15 217.877 583.128 222.233L565.704 216.01C568.815 208.75 572.964 203.098 578.149 199.053C583.387 194.956 589.091 192.104 595.262 190.497C601.485 188.837 607.604 188.007 613.62 188.007C617.457 188.007 621.865 188.474 626.843 189.408C631.874 190.289 636.722 192.13 641.389 194.93C646.108 197.731 650.024 201.957 653.135 207.609C656.246 213.262 657.802 220.833 657.802 230.323V309.042H639.445V292.863H638.511C637.267 295.456 635.192 298.23 632.288 301.186C629.384 304.142 625.521 306.657 620.698 308.731C615.876 310.806 609.99 311.843 603.041 311.843ZM605.841 295.352C613.101 295.352 619.22 293.926 624.199 291.074C629.229 288.222 633.014 284.54 635.555 280.028C638.148 275.517 639.445 270.772 639.445 265.793V248.992C638.667 249.925 636.956 250.781 634.311 251.559C631.718 252.285 628.71 252.933 625.288 253.503C621.917 254.022 618.624 254.488 615.409 254.903C612.246 255.266 609.679 255.577 607.708 255.837C602.937 256.459 598.477 257.47 594.329 258.87C590.232 260.219 586.913 262.267 584.372 265.016C581.883 267.712 580.639 271.394 580.639 276.061C580.639 282.44 582.998 287.262 587.717 290.529C592.488 293.744 598.529 295.352 605.841 295.352ZM709.666 149.737V309.042H691.308V149.737H709.666ZM894.505 189.563C893.571 181.681 889.786 175.562 883.148 171.206C876.51 166.85 868.369 164.672 858.723 164.672C851.671 164.672 845.5 165.812 840.21 168.094C834.973 170.376 830.876 173.513 827.92 177.506C825.016 181.499 823.564 186.037 823.564 191.119C823.564 195.371 824.575 199.027 826.598 202.087C828.672 205.094 831.317 207.609 834.532 209.632C837.747 211.602 841.118 213.236 844.644 214.532C848.17 215.777 851.411 216.788 854.367 217.566L870.547 221.922C874.695 223.011 879.311 224.515 884.393 226.434C889.527 228.352 894.427 230.971 899.094 234.29C903.813 237.557 907.703 241.758 910.762 246.891C913.822 252.025 915.352 258.326 915.352 265.793C915.352 274.402 913.096 282.18 908.584 289.129C904.124 296.078 897.59 301.601 888.982 305.698C880.426 309.794 870.028 311.843 857.79 311.843C846.381 311.843 836.502 310.002 828.153 306.32C819.856 302.638 813.322 297.504 808.551 290.918C803.832 284.332 801.162 276.683 800.539 267.971H820.453C820.971 273.987 822.994 278.965 826.52 282.906C830.098 286.796 834.61 289.7 840.055 291.618C845.552 293.485 851.463 294.419 857.79 294.419C865.154 294.419 871.765 293.226 877.625 290.84C883.485 288.403 888.126 285.032 891.549 280.728C894.972 276.372 896.683 271.29 896.683 265.482C896.683 260.193 895.205 255.889 892.249 252.57C889.293 249.251 885.404 246.554 880.581 244.48C875.758 242.406 870.547 240.591 864.946 239.035L845.344 233.434C832.898 229.856 823.046 224.748 815.785 218.111C808.525 211.473 804.895 202.787 804.895 192.052C804.895 183.133 807.307 175.354 812.13 168.716C817.004 162.027 823.538 156.841 831.732 153.159C839.977 149.426 849.182 147.559 859.346 147.559C869.613 147.559 878.74 149.4 886.726 153.082C894.712 156.712 901.039 161.69 905.706 168.016C910.425 174.343 912.914 181.525 913.174 189.563H894.505ZM962.937 237.168V309.042H944.58V149.737H962.937V208.232H964.493C967.293 202.061 971.494 197.16 977.094 193.53C982.747 189.848 990.266 188.007 999.652 188.007C1007.79 188.007 1014.92 189.641 1021.04 192.908C1027.16 196.123 1031.91 201.075 1035.28 207.765C1038.7 214.403 1040.41 222.856 1040.41 233.123V309.042H1022.05V234.368C1022.05 224.878 1019.59 217.54 1014.66 212.354C1009.79 207.117 1003.02 204.498 994.363 204.498C988.347 204.498 982.954 205.769 978.183 208.31C973.464 210.851 969.73 214.558 966.982 219.433C964.285 224.308 962.937 230.219 962.937 237.168ZM1109.16 311.843C1101.58 311.843 1094.71 310.417 1088.54 307.564C1082.37 304.66 1077.47 300.486 1073.84 295.041C1070.21 289.544 1068.4 282.906 1068.4 275.128C1068.4 268.283 1069.74 262.734 1072.44 258.482C1075.14 254.177 1078.74 250.807 1083.25 248.369C1087.76 245.932 1092.74 244.117 1098.19 242.924C1103.68 241.68 1109.21 240.694 1114.76 239.968C1122.02 239.035 1127.9 238.335 1132.41 237.868C1136.98 237.35 1140.3 236.494 1142.37 235.301C1144.5 234.109 1145.56 232.034 1145.56 229.078V228.456C1145.56 220.781 1143.46 214.818 1139.26 210.565C1135.11 206.313 1128.81 204.187 1120.36 204.187C1111.59 204.187 1104.72 206.106 1099.74 209.943C1094.76 213.78 1091.26 217.877 1089.24 222.233L1071.82 216.01C1074.93 208.75 1079.08 203.098 1084.26 199.053C1089.5 194.956 1095.21 192.104 1101.38 190.497C1107.6 188.837 1113.72 188.007 1119.73 188.007C1123.57 188.007 1127.98 188.474 1132.96 189.408C1137.99 190.289 1142.84 192.13 1147.5 194.93C1152.22 197.731 1156.14 201.957 1159.25 207.609C1162.36 213.262 1163.92 220.833 1163.92 230.323V309.042H1145.56V292.863H1144.63C1143.38 295.456 1141.31 298.23 1138.4 301.186C1135.5 304.142 1131.64 306.657 1126.81 308.731C1121.99 310.806 1116.1 311.843 1109.16 311.843ZM1111.96 295.352C1119.22 295.352 1125.33 293.926 1130.31 291.074C1135.34 288.222 1139.13 284.54 1141.67 280.028C1144.26 275.517 1145.56 270.772 1145.56 265.793V248.992C1144.78 249.925 1143.07 250.781 1140.43 251.559C1137.83 252.285 1134.82 252.933 1131.4 253.503C1128.03 254.022 1124.74 254.488 1121.52 254.903C1118.36 255.266 1115.79 255.577 1113.82 255.837C1109.05 256.459 1104.59 257.47 1100.44 258.87C1096.35 260.219 1093.03 262.267 1090.49 265.016C1088 267.712 1086.75 271.394 1086.75 276.061C1086.75 282.44 1089.11 287.262 1093.83 290.529C1098.6 293.744 1104.64 295.352 1111.96 295.352ZM1215.78 237.168V309.042H1197.42V149.737H1215.78V208.232H1217.34C1220.14 202.061 1224.34 197.16 1229.94 193.53C1235.59 189.848 1243.11 188.007 1252.5 188.007C1260.64 188.007 1267.77 189.641 1273.89 192.908C1280.01 196.123 1284.75 201.075 1288.12 207.765C1291.54 214.403 1293.26 222.856 1293.26 233.123V309.042H1274.9V234.368C1274.9 224.878 1272.43 217.54 1267.51 212.354C1262.63 207.117 1255.87 204.498 1247.21 204.498C1241.19 204.498 1235.8 205.769 1231.03 208.31C1226.31 210.851 1222.57 214.558 1219.83 219.433C1217.13 224.308 1215.78 230.219 1215.78 237.168Z" fill="#211618"/>
<path d="M517.75 278.19C517.75 280.09 517.09 282.21 515.78 284.54C514.47 286.88 513.08 288.04 511.62 288.04C509.28 288.04 507.42 287.02 506.04 284.97C504.65 282.93 504.1 281.03 504.4 279.27C504.98 276.2 507.47 274.67 511.85 274.67C515.78 274.69 517.75 275.86 517.75 278.19Z" fill="#CE8D76"/>
<path d="M773.15 234.16C777.24 230.22 781.04 228.25 784.54 228.25C786 228.25 787.83 228.73 790.02 229.67C792.21 230.62 793.74 231.09 794.62 231.09C796.37 231.09 797.91 230.25 799.22 228.57C800.53 226.89 801.19 225.1 801.19 223.2C801.19 221.16 800.46 219.55 799 218.38C793.45 213.86 787.68 211.59 781.7 211.59C775.27 211.59 770.75 215.02 768.12 221.88C767.39 223.63 767.03 225.38 767.03 227.14C767.03 232.11 768.56 234.59 771.63 234.59C772.2 234.6 772.71 234.46 773.15 234.16Z" fill="#CE8D76"/>
<path d="M924.73 234.16C928.82 230.22 932.62 228.25 936.12 228.25C937.58 228.25 939.41 228.73 941.6 229.67C943.79 230.62 945.32 231.09 946.2 231.09C947.95 231.09 949.49 230.25 950.8 228.57C952.11 226.89 952.77 225.1 952.77 223.2C952.77 221.16 952.04 219.55 950.58 218.38C945.03 213.86 939.26 211.59 933.28 211.59C926.85 211.59 922.33 215.02 919.7 221.88C918.97 223.63 918.61 225.38 918.61 227.14C918.61 232.11 920.14 234.59 923.21 234.59C923.77 234.6 924.29 234.46 924.73 234.16Z" fill="#CE8D76"/>
<path d="M849.82 278.19C849.82 280.09 849.16 282.21 847.85 284.54C846.54 286.88 845.15 288.04 843.69 288.04C841.35 288.04 839.49 287.02 838.11 284.97C836.72 282.93 836.17 281.03 836.47 279.27C837.05 276.2 839.54 274.67 843.92 274.67C847.84 274.69 849.82 275.86 849.82 278.19Z" fill="#CE8D76"/>
<path d="M272.019 195.324V171.901H275.618V195.324H272.019ZM273.849 167.997C273.148 167.997 272.543 167.758 272.034 167.28C271.536 166.802 271.287 166.228 271.287 165.557C271.287 164.886 271.536 164.311 272.034 163.834C272.543 163.356 273.148 163.117 273.849 163.117C274.551 163.117 275.151 163.356 275.649 163.834C276.157 164.311 276.411 164.886 276.411 165.557C276.411 166.228 276.157 166.802 275.649 167.28C275.151 167.758 274.551 167.997 273.849 167.997ZM282.21 195.324V171.901H285.687V175.561H285.992C286.48 174.31 287.268 173.339 288.355 172.648C289.443 171.946 290.75 171.596 292.275 171.596C293.82 171.596 295.106 171.946 296.133 172.648C297.17 173.339 297.978 174.31 298.557 175.561H298.801C299.401 174.351 300.301 173.39 301.501 172.678C302.7 171.957 304.139 171.596 305.816 171.596C307.911 171.596 309.624 172.251 310.955 173.563C312.287 174.864 312.953 176.892 312.953 179.648V195.324H309.354V179.648C309.354 177.919 308.882 176.684 307.936 175.942C306.991 175.2 305.877 174.829 304.596 174.829C302.949 174.829 301.674 175.327 300.769 176.323C299.864 177.309 299.411 178.56 299.411 180.075V195.324H295.752V179.282C295.752 177.95 295.319 176.877 294.455 176.064C293.591 175.24 292.478 174.829 291.116 174.829C290.18 174.829 289.306 175.078 288.493 175.576C287.69 176.074 287.039 176.765 286.541 177.65C286.053 178.524 285.809 179.536 285.809 180.684V195.324H282.21Z" fill="#CE8D76"/>
</g>
<defs>
<clipPath id="clip0_1_3">
<rect width="1310" height="382" fill="white"/>
</clipPath>
</defs>
</svg>
